<svg xmlns="http://www.w3.org/2000/svg" viewBox="0 0 500 500"><title>31. Delete </title><g id="Layer_2" data-name="Layer 2"><path d="M203.23,299.65c1.89,8.24,13.09,11.29,20.72,7.66s12.2-11.53,15.71-19.21a167.86,167.86,0,0,0,13.94-49.57c.64,4.63,7,6.41,11.17,4.25s6.43-6.64,8.46-10.84a107.71,107.71,0,0,1,3,32.44,13.86,13.86,0,0,1-1.5,6.37c-1.52,2.51-4.34,3.86-6.91,5.29a54.52,54.52,0,0,0-26.55,36.32c-.83,4.09-1.29,8.53-4,11.74-2.16,2.57-5.43,3.91-8.64,4.89-13.21,4-25.66,4.81-34.74,16.3-5.16,6.53-9,21.32-17.86,11.82-5.49-5.86-2.45-18.82,1.67-24.27s11.91-7.55,16.35-12.93C198.84,314.13,201.09,306.7,203.23,299.65Z" fill="#3fe2fd"/><polygon points="123.85 167.97 286.87 173.89 292.79 151.93 120.47 150.24 123.85 167.97" fill="#3fe2fd"/></g><g id="Layer_5" data-name="Layer 5"><rect x="104.77" y="119.86" width="199.99" height="20.49" fill="none"/><path d="M233.66,318.76h1.77V318a53.48,53.48,0,0,1,6.29-25.21l9-104.34a7,7,0,1,1,14,1.2l-7.34,85.07a53.77,53.77,0,0,1,15.17-7.82l13.34-111.4H125.57l14.75,202.24h43.9A50.93,50.93,0,0,1,233.66,318.76ZM194.38,189a7,7,0,1,1,14,0V320.79a7,7,0,1,1-14,0ZM160.31,326.64l-.61,0a7,7,0,0,1-7-6.4L141.47,189.62a7,7,0,1,1,13.95-1.2l11.26,130.64A7,7,0,0,1,160.31,326.64Z" fill="none"/><rect x="174.03" y="93.53" width="62.02" height="12.33" fill="none"/><path d="M166.68,319.06,155.42,188.42a7,7,0,1,0-13.95,1.2l11.27,130.64a7,7,0,0,0,7,6.4l.61,0A7,7,0,0,0,166.68,319.06Z" fill="#251ac7"/><path d="M201.38,327.79a7,7,0,0,0,7-7V189a7,7,0,1,0-14,0V320.79A7,7,0,0,0,201.38,327.79Z" fill="#251ac7"/><path d="M358.38,318.76H343V318A53.83,53.83,0,0,0,289.2,264.2c-.77,0-1.53,0-2.29.06l13.17-109.91h11.67a7,7,0,0,0,7-7V112.86a7,7,0,0,0-7-7h-61.7V86.53a7,7,0,0,0-7-7H167a7,7,0,0,0-7,7v19.33H97.77a7,7,0,0,0-7,7v34.49a7,7,0,0,0,7,7h13.68l15.38,210.87a7,7,0,0,0,7,6.49h49a50.92,50.92,0,0,0,50.81,48.76H358.38a50.86,50.86,0,0,0,0-101.71ZM174,93.53h62v12.33H174Zm-69.26,26.33h200v20.49h-200Zm92,249.75a36.89,36.89,0,0,1,36.86-36.85h8.77a7,7,0,0,0,7-7V318A39.77,39.77,0,0,1,329,318v7.79a7,7,0,0,0,7,7h22.41a36.86,36.86,0,0,1,0,73.71H233.66A36.89,36.89,0,0,1,196.8,369.61ZM125.57,155.47H285.84L272.5,266.87a53.77,53.77,0,0,0-15.17,7.82l7.34-85.07a7,7,0,1,0-14-1.2l-9,104.34A53.48,53.48,0,0,0,235.43,318v.79h-1.77a50.93,50.93,0,0,0-49.44,38.95h-43.9Z" fill="#251ac7"/></g></svg>